<svg xmlns="http://www.w3.org/2000/svg" data-name="Layer 1" viewBox="0 0 96 116.125" x="0px" y="0px"><title>01</title><path d="M65.57,40.94a7.91,7.91,0,0,0-1.52,1.21,1.14,1.14,0,0,0-.27,0,9.26,9.26,0,0,1,.6-1.56A.59.59,0,0,0,63.31,40a4.75,4.75,0,0,0-.72,2.61l-.14.12c-1.61,1.58-2.6,2.74-1.07,3.59.6.33,2.91-.3,3.64-3a.68.68,0,0,0-.08-.41,7.2,7.2,0,0,1,1.25-1,.59.59,0,0,0-.62-1Z" transform="translate(-2.12 -3.29)"/><path d="M72.88,47.67a.59.59,0,0,0-.25-1.16A2.72,2.72,0,0,0,71,47.86a1,1,0,0,0-.31-.05,9.71,9.71,0,0,1,.6-1.61.59.59,0,0,0-1.07-.5,4.73,4.73,0,0,0-.71,2.71l-.17.16c-1.61,1.75-2.62,3-1.16,3.9.57.33,2.83-.42,3.63-3.38a.49.49,0,0,0,0-.15A1.7,1.7,0,0,1,72.88,47.67Z" transform="translate(-2.12 -3.29)"/><path d="M63.4,49.81h0a1.63,1.63,0,0,0-1.24-.28,1.84,1.84,0,0,0-1.19.77c-.16.23-.34.47-.53.72-.82,1.07-1.94,2.53-.8,3.71a1.81,1.81,0,0,0,1.32.62h0c.94,0,1.68-.86,2.28-1.53l.12-.14a3.88,3.88,0,0,0,.75-1.44A2.19,2.19,0,0,0,63.4,49.81ZM63,51.87a2.79,2.79,0,0,1-.5,1l-.13.14c-.42.47-1,1.12-1.42,1.13-.06,0-.22,0-.47-.26s0-1,.89-2.17c.2-.26.4-.52.57-.77a.66.66,0,0,1,.42-.28h.09a.43.43,0,0,1,.26.08h0A1,1,0,0,1,63,51.87Z" transform="translate(-2.12 -3.29)"/><path d="M98,29.55h0a19.72,19.72,0,0,0-2-4.91,14.8,14.8,0,0,1-1.55-3.83,4.46,4.46,0,0,1,.78-3.28A10.08,10.08,0,0,0,96.63,13c.15-3.06-2.17-5.41-6.9-7-.37-.12-.42-.29-.44-.35a2.11,2.11,0,0,1,.44-1.41.59.59,0,0,0-.67-.9c-.1,0-2.44.85-2.84,2.63C86,7,86.44,8,87.55,9.13c2.2,2.13,2.34,3.66,2.07,4.22a.61.61,0,0,1-.29.29,2.09,2.09,0,0,0,.15-.45c.2-1-.25-2-1.34-3.17A8,8,0,0,0,84,8.1c-2.35-.58-4.05-1-3.82-4.17a.59.59,0,0,0-.88-.56,3.69,3.69,0,0,0-1.68,2.39c-.25,1.32.26,2.77,1.51,4.31a3.05,3.05,0,0,1,.71,2.42c-.32,2.52-3.24,5-4,5.63a4.3,4.3,0,0,0-2.48.37,7.79,7.79,0,0,0-4,5.73l0,.4c-.22,2.26-.35,3.17-.93,3.48,1.34-3-.47-5.45-1.6-7l-.36-.5c-.64-.92-.43-1.13.47-2a11,11,0,0,0,1.17-1.29,3.59,3.59,0,0,0-.47-5.15c-.63-.47-.69-2-.66-2.49a.59.59,0,0,0-1.09-.35,3.63,3.63,0,0,0,0,3.92.81.81,0,0,1,.19.68,2.3,2.3,0,0,1-1,1.2c-.13.08-3.3,2.07-3.67,4.63a3.49,3.49,0,0,0,1,2.91c1.62,1.83.31,5.84-.64,8.11a12.54,12.54,0,0,0-1.46,3c-.09.26-.86,2.54.13,4a2.34,2.34,0,0,0,.78.72,19.85,19.85,0,0,1-1,2.23,2.13,2.13,0,0,0-1-.22,2.28,2.28,0,0,0-1.63.83,3.06,3.06,0,0,0-.27,3.46c-.22.21-.45.42-.69.62A6.21,6.21,0,0,0,54.5,51.1,8,8,0,0,0,55,53a2.66,2.66,0,0,0-.35-.41A2.5,2.5,0,0,0,52.72,52a2.44,2.44,0,0,0-.43.06c-.73-1.4-2.23-4.6-2.2-6.07s1.8-6.43,2.48-8.16a.6.6,0,0,0,0-.13,1.72,1.72,0,0,1,.9-1.24,1.63,1.63,0,0,0,.84-2.09,1.45,1.45,0,0,0-1.65-1.07l-.2,0a.4.4,0,0,1-.06-.12,3.75,3.75,0,0,1-.12-1c0-.78-.06-2-1.47-2.18a4,4,0,0,0-3.61,1.61c-.58.88-.94,2.46.63,4.95l.59.9c-.67,1.39-3.22,7-2.53,9.79A46.59,46.59,0,0,0,49.15,55a3.68,3.68,0,0,0-.23,1,2.19,2.19,0,0,0,1.22,2.2l-.05.06a15.89,15.89,0,0,0-2.57,5.42,7.06,7.06,0,0,1-3.9-.9,4.65,4.65,0,0,1-1.57-2A20,20,0,0,0,36.22,54a.59.59,0,0,0-.9.19,9.7,9.7,0,0,1-.78,1.18,48.82,48.82,0,0,1-4.78-4.11.59.59,0,0,0-1,.17,8.16,8.16,0,0,1-1.59,2.18c-.44-.34-1.22-1-2.16-1.78h0A29.92,29.92,0,0,1,18.43,44c-.77-1.48-.76-2.13,0-2.87a.59.59,0,0,0,.13-.18,9.13,9.13,0,0,0,2.51-.54c.93-.34.92-.94.88-1.18-.21-1.05-2.3-1.63-3.7-1.58a21.69,21.69,0,0,0-2.92.31c-.37.06-.72.12-1.1.16-1.34.15-1.72,1.66-1.74,2.53a.64.64,0,0,0,0,.09,8.69,8.69,0,0,0,.79,2.68.59.59,0,0,0,.23.23c.68,4.07,5.13,11.64,8.6,13.68a8.28,8.28,0,0,0-.85,1.31c-.3,0-1-.11-2-.27a.59.59,0,0,0-.39-.07A28.71,28.71,0,0,1,9.39,55c-1.46-.88-1.75-1.38-1.45-2.42a.58.58,0,0,0,0-.27,9.12,9.12,0,0,0,1.87-1.78c.62-.77.3-1.28.14-1.46-.72-.8-2.81-.2-4,.57a21.68,21.68,0,0,0-2.34,1.78c-.28.24-.55.47-.86.71-1.07.83-.61,2.31-.17,3.06l.05.08a8.7,8.7,0,0,0,2.07,1.88.59.59,0,0,0,.3.08H5c2.26,2.61,8.08,5.87,12.48,6.85a.59.59,0,0,0,.29.08h0a10.36,10.36,0,0,0,2,.22h0a11.26,11.26,0,0,0,2.46,7.85c2.14,2.43,1.58,3.62.94,5A4,4,0,0,0,23,81.11c.22.43.42.87.63,1.31,1.41,3,2.86,6.09,7.83,7.94a26.77,26.77,0,0,1,8,4.53c.54.42,1,.81,1.59,1.19a.59.59,0,0,0,.67,0c.63-.43,13.63-9.35,16-19a3.49,3.49,0,0,0,1.51,1.72,4.37,4.37,0,0,0,2,.5,3.18,3.18,0,0,0,1.88-.57.59.59,0,0,0-.73-.93,2.46,2.46,0,0,1-2.59-.06c-.81-.41-1.26-1.7-1.5-2.91a3.16,3.16,0,0,0,1.12.79A2.74,2.74,0,0,0,62,75.39c1-.56,1.1-1.19,1-1.62-.15-1.18-2.06-2.06-3.4-2.54a42.88,42.88,0,0,0,3.81-3.87,4,4,0,0,0,2,2.34,4.06,4.06,0,0,0,1.82.45,2.75,2.75,0,0,0,1.52-.41,5.85,5.85,0,0,0,.71-.56,17.82,17.82,0,0,0,6.89,1.46,14.58,14.58,0,0,0,2.05-.14,37.75,37.75,0,0,0,8.7-2.38l1.26.18c2.29.23,3.24-.72,3.6-1.32a2.86,2.86,0,0,0-2.4-4.26c-.21,0-.21,0-.32-.28a1.42,1.42,0,0,0-1.67-.94,1.63,1.63,0,0,0-1.53,1.65,1.74,1.74,0,0,1-.68,1.3,71.92,71.92,0,0,1-7.73,2.05c-2.32.4-5.33-.81-6.31-1.24a4.07,4.07,0,0,0-1.26-3,3.48,3.48,0,0,0-2.52-1.16,2.9,2.9,0,0,0-1.55.51l-1.72-1.57s0-.1,0-.14a9.61,9.61,0,0,0,1,.05,11.13,11.13,0,0,0,6.8-2.53,2.47,2.47,0,0,0,2.14,1.06h0a2.53,2.53,0,0,0,2.26-2.09c0-.05,0-.11,0-.16.23.15.47.3.73.45a6,6,0,0,0,2.85,1,2.33,2.33,0,0,0,1-.2c1.28-.58,1.6-2.22,1.91-3.8.06-.29.11-.59.18-.88.5-2.24,2.31-2.83,5.31-3.81l.54-.18a6.62,6.62,0,0,0,4.35-3.5A5,5,0,0,0,92.88,41c-.58-1.06-1-1.76,1.32-3.48C98.13,34.57,98.41,31.56,98,29.55ZM81,12.63a4.23,4.23,0,0,0-1-3.31A4.3,4.3,0,0,1,78.79,6,2.22,2.22,0,0,1,79,5.31c.36,2.87,2.64,3.43,4.69,3.94a7.11,7.11,0,0,1,3.56,1.59c.79.83,1.15,1.56,1,2.11a1.27,1.27,0,0,1-.64.8,7.7,7.7,0,0,0-3,1.12,8.42,8.42,0,0,0-2.41,2.67c-.7,1-1.35,2-2.21,2.18A3.08,3.08,0,0,1,77.9,19a5.81,5.81,0,0,0-.74-.44C78.42,17.44,80.71,15.14,81,12.63ZM58.49,42.13a1.16,1.16,0,0,1,.78-.45.91.91,0,0,1,.39.08,15.65,15.65,0,0,1-1.44,2.06A1.69,1.69,0,0,1,58.49,42.13ZM57.43,57.3l-.25.84a.59.59,0,0,0,0,.26,3.17,3.17,0,0,0,.51,1.36C57,59.51,56,59,56.1,58.11a.75.75,0,0,1,.29-.61,1.51,1.51,0,0,1,.82-.22Zm-2.3,1.89A4.1,4.1,0,0,0,57.73,61a3.45,3.45,0,0,0,3.36,2.09h0l.36,0a17,17,0,0,1-1.26,1.38,8.54,8.54,0,0,1-6.44-4.06Zm7.74,2a2.17,2.17,0,0,1-1.77.68,2.25,2.25,0,0,1-2.23-1.25,6,6,0,0,0,3.9-.44.58.58,0,0,0,.12.16l.21.19A1.45,1.45,0,0,1,62.87,61.24ZM59.1,59.48a1.47,1.47,0,0,1-.75-1.14l.22-.75a13.47,13.47,0,0,0,2.15,1.3c.35.17.7.31,1,.44A3.88,3.88,0,0,1,59.1,59.48Zm-3.44-4.41a5,5,0,0,0-.17-.94A10,10,0,0,0,56.81,56,2.17,2.17,0,0,1,55.66,55.07Zm-8.58-8.12c-.56-2.29,1.67-7.48,2.58-9.29a.59.59,0,0,0,0-.59l-.77-1.17c-.68-1.08-1.34-2.59-.63-3.66a2.81,2.81,0,0,1,2.44-1.09c.37.05.43.14.46,1a4.7,4.7,0,0,0,.18,1.35,1.25,1.25,0,0,0,1.45.91c.34,0,.35,0,.47.3s.11.41-.31.64a2.9,2.9,0,0,0-1.48,2c-.27.7-2.5,6.45-2.54,8.51,0,1.89,1.7,5.42,2.3,6.56a5.3,5.3,0,0,0-1.36,1.29A41.88,41.88,0,0,1,47.08,46.95Zm3,9.21c.09-1.3,1.57-3,2.68-3a1.36,1.36,0,0,1,1,.34A2.6,2.6,0,0,1,54.46,55,26.18,26.18,0,0,0,51,57.37C50.15,57.12,50.07,56.57,50.09,56.15ZM36,55.39a18.44,18.44,0,0,1,5,6,5.64,5.64,0,0,0,2,2.45,8.15,8.15,0,0,0,4.41,1.08,10.75,10.75,0,0,0,1,2.09,35.09,35.09,0,0,1-6.48-.64,7.35,7.35,0,0,1-3.84-2.48.59.59,0,0,0-1,.69,8.42,8.42,0,0,0,4.51,2.94,39.81,39.81,0,0,0,7.59.68A12.06,12.06,0,0,0,51,70.09c-1.1,2.82-6.07,5.22-6.13,5.24a.59.59,0,0,0,.51,1.07c.22-.11,5.12-2.47,6.6-5.59a12.76,12.76,0,0,0,4.85,1.91C55.75,77.61,45.7,83.68,44,84.66c-1-.4-5.06-2.12-6.13-5-1.14-3.1-4.58-6.83-6.85-9.29-.49-.53-.93-1-1.28-1.41-1.22-1.38-1.69-4.87-1-7.16a3,3,0,0,1,1.88-2.17A9.55,9.55,0,0,0,36,55.39ZM23,56.46a5.79,5.79,0,0,1-1.21-.82,3.28,3.28,0,0,1,2.63-2.73c.77.67,1.42,1.19,1.87,1.53A10.28,10.28,0,0,1,24,55.81,4.44,4.44,0,0,0,23,56.46ZM14.4,39.29c.4,0,.77-.11,1.16-.17a20.4,20.4,0,0,1,2.78-.3,4.73,4.73,0,0,1,2.28.5,7.74,7.74,0,0,1-2.27.45,5.8,5.8,0,0,0-3.93.94,3.11,3.11,0,0,0-.56.61c0-.21-.09-.45-.13-.7S13.83,39.36,14.4,39.29Zm.26,3.26a.58.58,0,0,0,0-.19,1.89,1.89,0,0,1,.53-.72A3.54,3.54,0,0,1,17.09,41c-.79,1.23-.28,2.48.3,3.59a29.31,29.31,0,0,0,6,7.44,4.45,4.45,0,0,0-2.56,2.74C17.79,51.47,14.52,45.15,14.66,42.55ZM4.08,55.1c-.15-.16-.31-.33-.47-.53s-.56-1.15-.11-1.5.6-.49.9-.74a20.41,20.41,0,0,1,2.22-1.7,4.73,4.73,0,0,1,2.21-.76,7.74,7.74,0,0,1-1.7,1.56,5.8,5.8,0,0,0-2.88,2.84A3.11,3.11,0,0,0,4.08,55.1Zm1.33.63a.58.58,0,0,0-.13-.15,1.89,1.89,0,0,1,.08-.9,3.54,3.54,0,0,1,1.3-1.58c-.06,1.45,1,2.23,2.11,2.91a28.7,28.7,0,0,0,9,3.28A4.43,4.43,0,0,0,17,62.73C12.49,61.47,6.62,58,5.41,55.72ZM18.26,63a3.25,3.25,0,0,1,.85-3.49c.71.12,1.29.19,1.68.23a13.07,13.07,0,0,0-.58,1.91A14.53,14.53,0,0,0,20,63.2,8.44,8.44,0,0,1,18.26,63Zm23.2,31.84c-.4-.29-.8-.6-1.21-.92a27.78,27.78,0,0,0-8.34-4.71c-4.51-1.67-5.81-4.42-7.17-7.33-.21-.45-.42-.9-.64-1.34a2.87,2.87,0,0,1,.26-2.85c.68-1.46,1.53-3.28-1.12-6.29-2.34-2.65-2.5-6.65-1.87-9.5.55-2.51,1.76-4.44,3.15-5.05a11,11,0,0,0,4.95-4.2c1.33,1.29,3.37,2.9,4.32,3.63a7.14,7.14,0,0,1-3.4,2.14,4,4,0,0,0-2.72,3c-.85,2.72-.29,6.6,1.21,8.3.36.41.81.9,1.3,1.43,2.21,2.4,5.55,6,6.61,8.9,1.42,3.85,6.87,5.74,7.1,5.82a.59.59,0,0,0,.48,0c.45-.25,9.33-5.32,12.59-10.47C55.91,84.21,43.66,93.31,41.46,94.88Zm20.39-21c0,.06-.11.24-.47.45a1.6,1.6,0,0,1-1.45.21,3.86,3.86,0,0,1-1.68-2.15l.35-.29C60.28,72.66,61.8,73.48,61.85,73.92Zm16-6.26a73.26,73.26,0,0,0,8-2.12l.14-.07a2.9,2.9,0,0,0,1.27-2.25c0-.48.23-.53.45-.55s.37,0,.48.24a1.44,1.44,0,0,0,1.3,1,1.7,1.7,0,0,1,1.39.71l0,.08A1.67,1.67,0,0,1,91,66.37c-.37.62-1.23.88-2.44.75l-1.4-.2a.59.59,0,0,0-.32,0,36.85,36.85,0,0,1-8.55,2.36,16.14,16.14,0,0,1-7.95-1.08,5.57,5.57,0,0,0,.85-1.77C72.47,67,75.4,68.08,77.85,67.66ZM67.6,62.3a2.35,2.35,0,0,1,1.65.82,2.93,2.93,0,0,1,.9,2.44,4.57,4.57,0,0,1-2,3.19A2.31,2.31,0,0,1,66,68.65a2.9,2.9,0,0,1-1.57-2.47,16,16,0,0,0,2.07-3.42A1.81,1.81,0,0,1,67.6,62.3ZM57.38,71.61a11.6,11.6,0,0,1-5.27-2.16l0,0A10.61,10.61,0,0,1,50,67.3a.59.59,0,0,0-.06-.09,9.92,9.92,0,0,1-1.38-2.61v-.05a.57.57,0,0,0,.06-.27A15,15,0,0,1,51,59.09a18.64,18.64,0,0,1,3.92-3,3.26,3.26,0,0,0,.65.61A1.89,1.89,0,0,0,55,57.76l-2.33,2.06a.59.59,0,0,0-.13.72,9.61,9.61,0,0,0,7.93,5.11h0a.59.59,0,0,0,.4-.16,12.6,12.6,0,0,0,2.42-3,2.33,2.33,0,0,0,.82-1l1.19,1.09C63.51,66.42,58.45,70.74,57.38,71.61Zm3.86-13.79C58.08,56.29,56,53.73,55.67,51a5.05,5.05,0,0,1,1.73-4.63,17.61,17.61,0,0,0,4.93-7.47l.31,0a6.54,6.54,0,0,0,2.93-.32,1.79,1.79,0,0,1,1.37,0H67a3.76,3.76,0,0,1,1.73.78,7,7,0,0,0,1.12.71l.52.31a7.69,7.69,0,0,0,1.27.75,3.85,3.85,0,0,1,2.29,2.43,2.8,2.8,0,0,0,.72,1.05.59.59,0,0,0,.13.12l.1.07.1.07A2.41,2.41,0,0,1,76,47.07a2.9,2.9,0,0,0-.05.37,9.06,9.06,0,0,1-.9,2.87l-.22.36a3.57,3.57,0,0,0-.75,2.83l0,.08,0,0C72.13,56.51,67.18,60.68,61.24,57.82Zm14.1-1.65a1.38,1.38,0,0,1-1.12,1.16h0A1.25,1.25,0,0,1,73,56.68a14.68,14.68,0,0,0,1.77-1.94,5.48,5.48,0,0,0,.48.52A1.41,1.41,0,0,1,75.35,56.17ZM93.49,36.58c-2.61,2-2.59,3.27-1.64,5a3.84,3.84,0,0,1,.44,3.32,5.49,5.49,0,0,1-3.62,2.81l-.54.18c-3,1-5.46,1.78-6.1,4.68-.07.3-.13.6-.18.9-.25,1.29-.51,2.62-1.24,3-.55.25-1.5,0-2.75-.73a9.94,9.94,0,0,1-1.67-1.17,2.7,2.7,0,0,0-.63-.69,1.92,1.92,0,0,1-.29-.61,2.55,2.55,0,0,1,.61-1.92l.24-.39a10.06,10.06,0,0,0,1-3.33,2.34,2.34,0,0,1,0-.27A3.55,3.55,0,0,0,75.69,44l-.07-.05-.06,0,0,0,0,0a1.61,1.61,0,0,1-.47-.66,5,5,0,0,0-2.86-3.05,6.68,6.68,0,0,1-1.08-.63c-.08-.06-.24-.16-.64-.39s-.77-.45-.89-.54l0,0a4.91,4.91,0,0,0-2.33-1.08,2.87,2.87,0,0,0-2,0,5.44,5.44,0,0,1-2.47.25,1.53,1.53,0,0,1-1.3-.6c-.56-.83-.19-2.42,0-3a11.46,11.46,0,0,1,1.35-2.78l.06-.1c1.29-3.07,2.42-7.2.45-9.4a2.33,2.33,0,0,1-.67-2c.29-2,3.09-3.78,3.12-3.8a3.44,3.44,0,0,0,1.54-2,1.9,1.9,0,0,0,0-.72,2.45,2.45,0,0,1-.1,3.16,10,10,0,0,1-1.05,1.15c-.89.88-1.82,1.79-.61,3.53l.37.52c1.22,1.67,2.88,4,1,6.68a.59.59,0,0,0,.44.93c2.77.21,2.94-1.62,3.23-4.66l0-.39a6.58,6.58,0,0,1,3.28-4.77,3.25,3.25,0,0,1,3.39.39,4.14,4.14,0,0,0,3.09.93c1.35-.26,2.17-1.49,3-2.68a7.58,7.58,0,0,1,2.07-2.34,5.86,5.86,0,0,1,3.33-1,1.89,1.89,0,0,0,2-1.06c.52-1.1.18-3.14-2.32-5.57-.8-.78-1.14-1.48-1-2.07a1.94,1.94,0,0,1,.72-1,1.9,1.9,0,0,0,.07.81A1.73,1.73,0,0,0,89.35,7.1c4.17,1.39,6.22,3.34,6.1,5.81A8.82,8.82,0,0,1,94.19,17,5.58,5.58,0,0,0,93.29,21,15.68,15.68,0,0,0,95,25.18a18.78,18.78,0,0,1,1.86,4.63h0C97.36,32.23,96.24,34.51,93.49,36.58Z" transform="translate(-2.12 -3.29)"/></svg>