<svg xmlns="http://www.w3.org/2000/svg" xmlns:xlink="http://www.w3.org/1999/xlink" version="1.1" x="0px" y="0px" viewBox="0 0 100 125" enable-background="new 0 0 100 100" xml:space="preserve"><path d="M84.367,80.865l-9.945-4.064l1.719-4.863c0.164-0.466,0.025-0.984-0.348-1.309L54.324,52.078  c-0.082-0.07-0.172-0.13-0.27-0.176l-5.485-2.609l15.049-25.705c0.064-0.111,0.111-0.232,0.139-0.358l3.266-15.471  c0.102-0.483-0.102-0.979-0.516-1.25c-0.412-0.272-0.949-0.264-1.354,0.022l-2.297,1.626l-0.145-2.307  c-0.029-0.462-0.32-0.865-0.75-1.038c-0.43-0.172-0.918-0.083-1.26,0.229L38.552,25.389L15.218,35.452  c-0.311,0.134-0.55,0.392-0.66,0.712c-0.11,0.319-0.081,0.67,0.082,0.966l4.033,7.37c0.146,0.266,0.386,0.467,0.673,0.562  l9.718,3.244V92.57c0,0.58,0.414,1.077,0.985,1.182c0.562,0.097,1.134-0.216,1.338-0.76l2.508-6.679l5.399,3.927l-2.804,3.468  c-0.29,0.36-0.349,0.854-0.149,1.271s0.619,0.684,1.082,0.684h29.495c0.256,0,0.504-0.082,0.709-0.233l16.998-12.486  c0.35-0.257,0.533-0.684,0.48-1.113C85.053,81.398,84.77,81.029,84.367,80.865z M66.523,93.263H39.937l2.018-2.495  c0.207-0.255,0.3-0.586,0.256-0.911c-0.012-0.091-0.056-0.17-0.088-0.253L61.715,65.36c0.209-0.258,0.168-0.635-0.09-0.844  c-0.258-0.21-0.635-0.169-0.844,0.089L41.29,88.726l-7.024-5.109l11.6-30.899l0.939-1.605L52.877,54l20.727,17.91l-1.824,5.169  c-0.146,0.414-0.039,0.848,0.227,1.164L66.77,93.084L66.523,93.263z M32.982,83.267c-0.358,0.108-0.646,0.378-0.779,0.728  l-0.739,1.971V48.469l13.078,4.359L33.119,83.259C33.073,83.267,33.027,83.254,32.982,83.267z M30.643,46.304l-10.091-3.369  l-1.727-3.153l3.784-4.903l16.745-7.222l10.411,14.845l-3.929,6.709c-0.17,0.29-0.209,0.638-0.111,0.959  c0.025,0.078,0.078,0.14,0.117,0.21l-0.793,1.354l-13.627-4.542C31.335,46.783,31.05,46.439,30.643,46.304z M17.377,37.134  l2.962-1.276l-2.143,2.774L17.377,37.134z M73.068,78.84l8.41,3.438l-12.992,9.544L73.068,78.84z M62.49,11.358l1.551-1.099  l-2.592,12.283L50.433,41.361L40.355,26.992l3.138-2.882l17.812-12.64C61.693,11.645,62.143,11.604,62.49,11.358z M60.477,8.51  l0.123,1.945c0,0.014,0.006,0.026,0.008,0.039l-10.072,7.147L60.477,8.51z" fill="white"/></svg>